<?xml version="1.0" standalone="no"?>
<!DOCTYPE svg PUBLIC "-//W3C//DTD SVG 20010904//EN"
 "http://www.w3.org/TR/2001/REC-SVG-20010904/DTD/svg10.dtd">
<svg version="1.0" xmlns="http://www.w3.org/2000/svg"
 width="1024.000000pt" height="1024.000000pt" viewBox="0 0 1024.000000 1024.000000"
 preserveAspectRatio="xMidYMid meet">

<g transform="translate(0.000000,1024.000000) scale(0.100000,-0.100000)" fill="#ff0100">
<path d="M5125 9665 c-77 -7 -152 -14 -167 -14 -26 -1 -28 -4 -28 -44 0 -56
15 -73 68 -80 24 -3 45 -7 47 -9 3 -2 14 -117 25 -255 21 -261 19 -307 -15
-374 -37 -70 -109 -108 -204 -109 -111 0 -194 61 -221 160 -8 29 -50 478 -50
537 0 6 18 14 40 18 59 10 73 28 65 84 -4 25 -8 47 -9 48 -1 1 -80 -4 -176
-12 -96 -8 -185 -15 -197 -15 -19 0 -23 -5 -23 -34 0 -65 14 -83 67 -91 l49
-6 21 -267 c24 -293 33 -337 92 -422 74 -108 182 -160 328 -160 196 0 323 73
394 225 18 38 32 87 35 126 6 55 -15 399 -31 525 l-6 40 48 15 48 14 3 58 3
57 -33 -1 c-18 -1 -96 -7 -173 -14z"/>
<path d="M5537 9643 c-23 -85 -16 -104 43 -122 36 -10 41 -16 37 -34 -3 -12
-34 -176 -68 -364 l-63 -343 -32 0 c-62 0 -81 -14 -89 -65 -3 -26 -5 -49 -2
-51 6 -6 381 -74 385 -69 2 2 5 28 6 57 l1 53 -43 20 c-50 22 -48 5 -15 188
l16 88 41 -6 c22 -4 52 -14 64 -22 25 -15 30 -26 127 -256 32 -76 65 -148 74
-159 13 -15 44 -25 126 -40 93 -17 132 -30 254 -89 79 -38 149 -69 156 -69 13
0 45 62 45 89 0 10 -16 29 -35 42 -19 13 -35 29 -35 34 0 6 27 66 60 134 32
68 61 128 62 133 2 5 98 -36 213 -91 115 -56 214 -102 218 -104 5 -1 -21 -66
-58 -144 l-67 -141 -31 9 c-61 17 -76 12 -99 -36 -12 -24 -20 -47 -17 -49 7
-7 341 -166 349 -166 9 0 40 68 40 89 0 11 -16 32 -35 48 l-36 28 157 330 c86
182 158 332 160 334 2 2 21 -1 43 -7 51 -16 63 -10 89 43 l22 45 -177 85 c-97
47 -178 85 -180 85 -6 0 -43 -83 -43 -97 0 -7 18 -26 39 -41 l39 -29 -64 -134
c-36 -74 -70 -133 -76 -131 -37 10 -418 197 -418 206 0 5 28 68 62 139 55 113
64 128 82 122 77 -22 83 -21 110 32 l25 50 -180 86 -179 86 -20 -39 c-28 -56
-25 -75 15 -100 19 -12 35 -26 35 -32 0 -8 -306 -658 -313 -664 -1 -1 -33 4
-70 12 -124 26 -120 22 -191 182 -36 79 -72 152 -82 163 -21 23 -23 21 48 42
123 38 198 133 206 262 6 91 -8 135 -62 193 -68 75 -148 105 -402 152 -121 22
-229 42 -241 45 -15 3 -23 0 -26 -12z m463 -226 c87 -42 113 -127 68 -217 -34
-67 -75 -90 -162 -90 -71 1 -152 12 -163 23 -5 5 39 265 53 318 4 15 11 15 82
2 42 -8 97 -24 122 -36z"/>
<path d="M3656 9405 c-201 -51 -358 -203 -395 -383 -44 -213 57 -459 236 -572
186 -118 458 -85 634 77 102 95 150 205 151 348 2 231 -140 447 -340 516 -76
27 -209 33 -286 14z m244 -181 c117 -64 201 -222 200 -379 -1 -137 -72 -233
-211 -287 -165 -63 -330 13 -409 187 -67 146 -64 275 6 377 86 124 284 173
414 102z"/>
<path d="M2762 8950 c-29 -10 -69 -29 -90 -41 -38 -24 -411 -277 -425 -289
-14 -12 43 -90 65 -90 10 0 35 7 55 15 20 8 37 14 38 13 1 -2 95 -139 210
-306 l208 -303 -34 -35 c-18 -19 -37 -34 -43 -34 -5 0 -27 -12 -47 -26 l-37
-26 -281 243 -281 242 20 32 c29 47 25 69 -17 104 -30 25 -40 29 -48 18 -5 -7
-64 -75 -129 -151 l-120 -138 35 -29 c42 -35 69 -36 107 -4 l30 26 111 -96
c61 -53 111 -100 111 -104 0 -6 -246 -298 -295 -350 -12 -12 -31 1 -124 83
-61 54 -111 99 -111 102 0 2 10 24 23 50 l22 46 -39 34 c-22 19 -43 33 -46 32
-4 -2 -64 -68 -133 -148 l-125 -145 26 -28 c39 -41 66 -44 106 -13 19 14 37
26 40 26 6 0 539 -458 550 -474 5 -7 0 -26 -14 -48 -26 -44 -12 -47 -208 51
-78 39 -144 71 -148 71 -5 0 -144 -283 -144 -295 0 -10 102 -54 115 -49 6 3
25 32 41 65 15 33 32 63 36 65 4 3 44 -14 89 -36 l82 -42 -6 -51 c-16 -151
-123 -293 -247 -327 -87 -24 -218 -2 -315 55 -59 35 -131 113 -156 170 -17 37
-23 68 -23 123 1 66 5 81 47 165 25 50 64 112 85 137 l39 45 55 -18 c30 -9 60
-17 66 -17 16 0 56 80 45 90 -4 4 -56 30 -115 58 l-107 50 -48 -51 c-111 -118
-198 -268 -222 -385 -36 -175 24 -358 157 -472 93 -79 250 -140 364 -140 134
0 238 42 340 138 56 53 78 83 113 156 52 107 76 195 78 283 1 34 4 63 6 63 3
0 12 -7 21 -15 16 -15 28 -4 149 137 l132 152 -23 19 c-13 10 -33 25 -45 34
-25 17 -19 19 -88 -31 -19 -14 -28 -8 -130 79 -60 52 -111 99 -113 104 -4 11
294 361 306 361 6 0 178 -144 220 -184 11 -11 10 -19 -7 -47 -12 -19 -21 -41
-21 -50 0 -14 62 -79 74 -79 2 0 54 58 116 129 61 71 118 132 126 135 42 16
460 315 494 353 103 117 116 251 37 370 -46 69 -102 96 -187 90 -36 -3 -75 -8
-86 -12 -22 -7 -22 -6 3 43 49 100 40 178 -29 257 -23 26 -60 56 -83 66 -52
24 -135 24 -203 -1z m102 -154 c47 -19 87 -76 94 -131 4 -37 0 -52 -20 -83
-23 -33 -160 -142 -199 -157 -12 -4 -37 25 -94 107 -42 62 -79 118 -81 123 -5
16 168 128 225 146 37 11 38 10 75 -5z m306 -361 c41 -39 64 -96 56 -140 -9
-49 -56 -97 -164 -172 l-90 -63 -45 63 c-24 34 -62 90 -85 124 l-42 62 77 55
c119 84 170 108 221 103 29 -3 53 -14 72 -32z"/>
<path d="M7716 8649 c-170 -40 -336 -206 -390 -388 -22 -76 -21 -194 4 -273
35 -113 129 -228 245 -300 161 -100 364 -97 523 8 205 135 303 386 233 597
-56 166 -197 299 -370 351 -59 17 -181 20 -245 5z m270 -185 c65 -31 141 -106
170 -169 18 -38 24 -68 24 -121 0 -62 -5 -81 -36 -144 -45 -90 -129 -176 -210
-216 -49 -24 -71 -29 -134 -29 -90 1 -151 28 -224 101 -74 73 -91 114 -91 214
0 73 4 93 29 143 36 75 130 175 196 211 90 49 186 52 276 10z"/>
<path d="M4685 8214 c-16 -8 -49 -34 -73 -57 -50 -49 -192 -233 -192 -249 0
-6 -33 21 -74 60 -91 89 -120 94 -178 35 -47 -48 -132 -191 -148 -249 -18 -63
-4 -89 95 -172 46 -39 114 -106 151 -149 77 -90 316 -447 381 -570 50 -94 51
-93 -52 -69 -186 43 -267 51 -520 51 -272 -1 -336 -8 -538 -65 -396 -111 -750
-390 -907 -714 -80 -165 -153 -439 -181 -681 -17 -155 -22 -470 -10 -635 23
-306 64 -513 156 -784 109 -326 253 -600 434 -826 77 -96 243 -262 346 -345
523 -421 1330 -678 1967 -626 211 17 428 60 593 117 38 14 78 27 88 29 9 2 23
7 30 12 6 4 20 9 31 10 31 5 260 118 353 174 312 189 623 497 823 818 44 71
131 241 178 347 238 540 340 884 393 1324 17 139 14 463 -5 594 -49 334 -156
594 -339 821 -84 104 -280 292 -387 372 -99 74 -306 179 -436 222 -282 92
-573 94 -889 5 -11 -3 17 16 63 43 172 101 264 175 458 369 176 177 198 195
270 229 165 77 186 93 168 123 -27 45 -158 78 -268 68 -75 -7 -102 -13 -285
-62 -69 -19 -136 -34 -150 -34 -25 1 -25 2 14 36 22 20 66 54 98 75 42 30 57
46 57 63 0 30 -16 36 -93 36 -88 0 -167 -26 -404 -130 -322 -143 -400 -186
-520 -287 l-52 -43 -26 87 c-64 218 -112 322 -230 502 -64 97 -109 141 -145
141 -8 0 -28 -7 -45 -16z m82 -907 c54 -119 65 -166 26 -111 -17 24 -60 127
-118 279 -20 55 45 -65 92 -168z m831 -357 c-40 -12 -224 -106 -273 -140 -24
-17 -48 -30 -54 -30 -7 0 -41 117 -41 143 0 6 272 31 370 34 l25 1 -27 -8z
m-617 -189 c10 -41 16 -77 13 -80 -14 -14 -42 23 -63 86 -22 63 -23 73 -11
103 l14 34 15 -35 c8 -19 22 -68 32 -108z m-254 -544 c-3 -24 -9 -51 -13 -60
-5 -15 2 -17 61 -17 59 0 66 -2 61 -17 -3 -10 -26 -112 -51 -228 -25 -115 -48
-218 -51 -227 -5 -16 -23 -18 -205 -18 l-199 0 0 -55 0 -55 161 0 162 0 -7
-39 c-3 -22 -9 -46 -12 -55 -5 -14 4 -16 61 -16 50 0 66 -3 62 -12 -2 -7 -24
-100 -47 -205 l-44 -193 -168 0 -168 0 0 -290 0 -290 -220 0 -220 0 0 55 0 55
-60 0 -60 0 0 600 0 600 -45 0 c-29 0 -45 4 -45 12 0 7 21 108 47 225 l47 213
283 0 283 0 0 23 c0 13 3 27 7 30 3 4 92 7 196 7 l190 0 -6 -43z m840 -44 c82
-27 111 -49 222 -162 114 -116 159 -183 194 -288 111 -337 -4 -734 -247 -853
-71 -35 -177 -60 -258 -60 l-58 0 0 -185 0 -185 -220 0 -220 0 0 55 0 55 -60
0 -60 0 0 599 0 600 -48 3 -49 3 33 145 c17 80 40 180 49 223 l17 79 322 -4
c291 -4 327 -6 383 -25z m1885 -54 c60 -31 198 -176 230 -241 39 -79 58 -161
59 -247 0 -63 -4 -83 -32 -139 -71 -145 -166 -200 -328 -189 -47 3 -103 11
-123 17 -89 26 -135 109 -148 265 -6 67 -15 109 -39 165 -60 140 -52 202 38
281 60 54 80 66 148 95 67 28 130 26 195 -7z m-1035 -1110 c23 -11 53 -35 65
-52 12 -18 45 -55 74 -83 59 -57 84 -120 84 -208 0 -185 -136 -294 -303 -244
-37 11 -67 35 -124 99 -11 13 -36 35 -53 48 -50 38 -80 112 -80 197 0 118 42
197 130 244 50 27 150 26 207 -1z m-2421 -679 l-6 -40 40 0 c22 0 40 -2 40 -4
0 -3 -50 -229 -65 -293 -5 -22 -9 -23 -135 -23 l-130 0 0 -30 0 -30 121 0 121
0 -6 -35 -7 -35 41 0 c35 0 41 -3 36 -17 -2 -10 -12 -54 -21 -98 -9 -44 -19
-88 -22 -97 -4 -16 -19 -18 -134 -18 l-129 0 0 -30 0 -30 121 0 121 0 -6 -35
-7 -35 41 0 c35 0 41 -3 36 -17 -2 -10 -17 -75 -33 -145 l-28 -128 -262 0
-263 0 0 35 c0 34 -1 35 -40 35 l-40 0 0 390 0 390 -31 0 c-26 0 -31 3 -26 20
3 11 17 76 33 145 l27 125 184 0 c176 0 183 1 183 20 0 19 7 20 126 20 l127 0
-7 -40z m724 -16 c83 -39 100 -51 100 -69 0 -16 9 -26 33 -36 17 -7 34 -14 36
-16 2 -1 -22 -72 -55 -157 l-58 -154 -49 44 c-103 92 -221 65 -264 -60 -31
-93 -18 -303 21 -328 42 -28 133 13 186 85 29 39 36 44 42 30 4 -10 14 -36 23
-57 14 -36 17 -38 28 -22 11 16 20 0 66 -125 l54 -143 -34 -29 c-19 -15 -63
-42 -99 -60 -60 -30 -71 -32 -170 -32 -98 0 -110 2 -170 32 -94 46 -235 186
-278 275 -84 173 -80 433 10 611 40 80 114 157 191 198 59 32 67 34 164 34 73
0 104 4 108 13 6 17 3 18 115 -34z m764 -12 c54 -25 89 -53 156 -121 92 -95
138 -171 165 -276 22 -81 22 -279 0 -360 -40 -154 -129 -270 -252 -328 -63
-30 -76 -32 -173 -32 -98 0 -110 2 -170 32 -90 44 -237 186 -278 269 -80 159
-92 386 -30 551 47 126 144 229 265 279 50 21 71 24 153 22 83 -3 103 -7 164
-36z m690 -12 c14 -22 32 -40 39 -40 6 0 30 -32 52 -70 22 -38 43 -69 47 -67
4 1 36 49 72 107 l64 105 146 3 146 3 0 -41 c0 -39 1 -40 35 -40 l35 0 0 -530
0 -530 -140 0 -140 0 0 35 c0 34 -1 35 -40 35 l-40 0 -2 203 -3 202 -36 -59
-37 -59 -26 41 c-16 26 -31 39 -40 36 -9 -3 -26 15 -50 53 l-35 58 -1 -272 0
-273 -145 0 -145 0 0 35 c0 33 -2 35 -35 35 l-35 0 0 390 0 390 -34 0 -33 0
29 133 c16 72 31 138 33 145 3 9 42 12 148 12 l144 0 27 -40z"/>
<path d="M5420 5523 c0 -137 1 -138 19 -114 26 35 41 89 41 152 0 78 -8 99
-36 99 l-24 0 0 -137z"/>
<path d="M5311 3955 c-49 -42 -66 -102 -66 -240 0 -147 12 -178 66 -183 50 -4
92 33 116 101 24 69 24 254 0 310 -14 33 -20 37 -51 37 -22 0 -45 -9 -65 -25z"/>
<path d="M8450 7829 c-25 -5 -82 -27 -128 -49 -148 -74 -260 -211 -291 -358
-46 -222 81 -473 294 -578 73 -36 86 -39 181 -42 84 -4 116 0 171 17 197 60
354 229 386 415 26 151 -30 320 -148 445 -125 132 -287 184 -465 150z m285
-203 c54 -32 108 -94 142 -164 48 -99 32 -221 -44 -318 -67 -86 -235 -174
-332 -174 -112 0 -224 78 -282 196 -27 54 -32 76 -32 134 0 90 32 157 113 234
132 126 312 164 435 92z"/>
<path d="M9285 6954 c-49 -18 -55 -27 -48 -83 l5 -46 -342 -110 c-188 -60
-348 -111 -355 -113 -7 -2 -18 10 -25 27 -21 51 -39 62 -89 49 -23 -6 -45 -16
-47 -23 -7 -17 140 -469 178 -545 39 -79 133 -177 207 -214 191 -97 447 -52
607 108 98 98 134 188 134 336 0 47 -5 103 -11 125 -27 102 -161 505 -167 504
-4 0 -25 -7 -47 -15z m41 -416 c60 -187 44 -301 -56 -392 -108 -98 -298 -143
-423 -100 -59 20 -126 79 -159 140 -28 53 -85 231 -76 240 3 3 156 54 339 114
184 59 335 108 336 109 1 1 18 -50 39 -111z"/>
<path d="M782 6333 c-29 -103 -52 -191 -52 -194 0 -6 78 -29 100 -29 5 0 20
20 32 45 20 40 25 45 48 40 14 -3 174 -48 355 -98 l330 -92 3 -52 c2 -28 8
-55 15 -60 18 -14 86 -32 91 -25 2 4 25 84 50 177 26 94 49 177 52 186 4 13
-6 20 -45 29 -59 14 -65 11 -91 -40 l-20 -39 -87 24 c-49 14 -207 58 -353 98
l-265 74 -3 49 c-4 56 -12 70 -50 77 -15 3 -34 8 -43 12 -13 5 -25 -27 -67
-182z"/>
<path d="M680 5953 c0 -10 -18 -175 -40 -368 -21 -192 -38 -350 -37 -351 1 -1
23 -4 49 -7 55 -8 74 5 84 58 5 28 11 35 29 35 26 0 643 -67 693 -75 30 -6 32
-8 32 -49 0 -24 6 -48 13 -54 16 -12 107 -26 107 -15 0 4 18 170 40 368 21
197 38 361 36 362 -6 7 -250 33 -255 28 -3 -3 -5 -27 -5 -52 l-1 -48 54 -14
53 -14 -5 -41 c-3 -23 -11 -96 -18 -163 -12 -114 -14 -123 -33 -123 -15 0
-233 24 -272 30 0 0 8 75 18 166 11 91 17 169 13 172 -5 5 -128 23 -132 18 -1
-1 -10 -73 -19 -161 -9 -88 -21 -164 -25 -169 -11 -12 -270 15 -275 28 -3 7 4
81 13 166 l18 155 56 3 c61 3 69 11 69 74 0 32 -1 32 -142 48 -123 13 -118 13
-118 -7z"/>
<path d="M9110 5451 c-85 -16 -125 -31 -185 -66 -78 -47 -109 -77 -157 -149
-60 -93 -81 -170 -81 -306 0 -127 16 -207 59 -291 21 -42 23 -51 9 -45 -58 22
-63 20 -75 -26 -7 -23 -30 -108 -51 -187 -24 -88 -36 -148 -31 -153 5 -5 31
-10 58 -11 46 -2 49 0 69 35 11 21 26 38 32 38 13 0 235 -59 240 -64 6 -6 -28
-104 -40 -114 -6 -5 -102 -40 -213 -76 -110 -36 -207 -72 -216 -78 -15 -12
-68 -176 -68 -211 0 -14 76 -37 98 -29 7 2 23 25 36 50 l24 47 145 48 c80 26
157 57 170 67 l25 20 7 -42 c16 -97 78 -188 155 -228 49 -25 137 -40 187 -31
60 12 129 56 168 109 44 61 72 136 135 368 28 104 53 196 56 205 4 13 -7 20
-45 29 -28 6 -55 9 -61 5 -6 -3 -19 -24 -31 -46 -14 -29 -25 -39 -37 -35 -9 3
-161 44 -337 91 -176 47 -329 89 -340 94 -17 7 -20 16 -17 56 l4 48 194 -5
194 -6 0 78 c0 42 3 118 6 168 l7 92 -60 0 c-32 0 -64 -5 -71 -12 -7 -7 -12
-40 -12 -79 0 -37 -5 -71 -10 -74 -6 -4 -51 -3 -99 0 l-89 7 -18 64 c-22 81
-16 200 13 266 31 69 93 131 166 164 56 26 72 29 173 29 107 0 112 -1 187 -38
126 -62 177 -151 177 -306 0 -82 -22 -205 -41 -227 -7 -8 -31 -14 -58 -14 -61
0 -72 -9 -78 -62 l-5 -45 92 -6 c51 -4 110 -7 131 -7 l37 0 27 80 c91 273 64
507 -76 655 -64 68 -131 112 -208 135 -69 22 -207 32 -271 21z m178 -1301 c81
-22 152 -42 158 -45 9 -2 5 -27 -11 -83 -27 -98 -51 -140 -96 -170 -70 -48
-192 -13 -234 68 -8 16 -15 54 -15 85 0 60 29 185 42 185 4 0 74 -18 156 -40z"/>
<path d="M1155 5004 c-214 -30 -399 -53 -409 -51 -12 1 -23 14 -29 32 -5 17
-14 36 -20 43 -10 13 -85 16 -103 4 -8 -5 -4 -61 14 -199 l26 -193 40 7 c69
10 76 17 76 79 0 35 5 56 13 59 6 2 118 18 247 35 129 17 252 35 273 40 l37 8
-32 -37 c-17 -20 -156 -163 -307 -319 -200 -205 -277 -290 -280 -310 -2 -15 2
-71 9 -126 l13 -98 49 4 c58 6 68 17 68 75 0 40 1 41 38 47 20 3 174 24 342
46 168 22 317 43 331 46 24 5 28 1 41 -37 18 -54 33 -63 92 -55 37 6 46 11 42
24 -2 9 -15 97 -27 196 l-23 178 -44 -6 c-62 -8 -72 -19 -72 -82 0 -64 33 -53
-280 -94 -129 -18 -248 -34 -265 -37 -32 -6 -36 -11 428 463 l167 170 0 50 c0
76 -8 94 -39 93 -14 -1 -201 -25 -416 -55z"/>
<path d="M1777 3849 c-47 -25 -53 -40 -38 -98 l12 -47 -76 -140 c-41 -76 -75
-147 -75 -156 0 -31 -18 -29 -64 6 -134 102 -349 53 -429 -98 -31 -60 -29
-178 5 -266 24 -63 211 -427 227 -443 4 -4 26 3 50 15 41 22 42 25 38 63 -3
22 -8 47 -11 55 -4 11 71 55 322 186 l327 171 36 -38 c20 -22 40 -39 45 -39 5
1 28 11 51 23 l42 22 -92 176 -92 176 -42 -20 c-50 -24 -59 -44 -43 -93 7 -20
8 -40 4 -44 -5 -5 -57 -34 -117 -65 l-107 -57 -24 53 c-30 64 -33 56 93 279
49 88 92 169 96 180 4 14 -9 50 -40 113 -26 50 -50 95 -54 99 -3 3 -23 -2 -44
-13z m-281 -570 c44 -27 150 -189 133 -203 -2 -1 -70 -37 -151 -80 l-148 -76
-40 79 c-41 84 -57 143 -46 185 9 35 54 86 91 102 47 20 122 17 161 -7z"/>
<path d="M8531 3594 c-139 -37 -257 -139 -329 -282 -104 -208 -70 -417 92
-577 121 -120 255 -171 422 -163 80 4 103 10 169 41 177 85 305 288 305 487 0
128 -50 242 -149 340 -142 141 -339 200 -510 154z m262 -207 c238 -118 299
-318 160 -520 -36 -53 -100 -94 -171 -112 -53 -14 -68 -14 -131 -1 -89 19
-180 66 -243 128 -102 99 -128 229 -70 352 66 141 154 198 299 193 71 -3 92
-8 156 -40z"/>
<path d="M2145 2853 c-88 -32 -137 -68 -327 -242 -103 -94 -191 -171 -196
-171 -4 0 -23 11 -42 25 -19 14 -37 25 -42 25 -11 0 -78 -61 -78 -72 0 -5 59
-74 132 -154 l132 -144 38 37 c21 20 38 42 38 48 0 6 -11 27 -25 47 -14 20
-25 39 -25 42 0 3 84 82 186 176 236 217 291 247 398 216 97 -28 175 -129 176
-227 0 -88 -33 -132 -248 -329 l-196 -179 -40 30 c-22 16 -45 29 -50 29 -6 -1
-29 -16 -50 -34 l-40 -34 119 -129 c65 -70 126 -137 136 -147 17 -18 19 -18
43 -2 14 9 33 27 42 41 15 22 14 26 -10 67 l-25 43 194 178 c107 98 209 198
226 223 79 116 91 259 31 387 -44 94 -126 178 -219 224 -92 45 -196 55 -278
26z"/>
<path d="M7881 2745 c-30 -9 -77 -28 -105 -42 -73 -39 -187 -155 -224 -228
-32 -65 -56 -162 -50 -210 3 -29 5 -30 61 -33 70 -4 87 7 87 57 0 83 90 210
185 259 42 22 63 27 130 27 67 0 89 -5 138 -29 79 -38 166 -122 208 -198 32
-58 34 -70 34 -153 0 -113 -15 -147 -105 -235 -74 -73 -134 -109 -155 -94 -8
5 -32 22 -55 38 l-41 30 -37 -37 -37 -37 85 -85 c46 -47 90 -85 98 -85 19 0
108 47 173 90 263 179 330 500 155 737 -135 183 -364 279 -545 228z"/>
<path d="M7100 2149 c-314 -210 -315 -210 -477 -271 l-161 -60 16 -45 c21 -55
37 -64 87 -53 22 5 41 7 43 6 13 -13 92 -240 85 -246 -13 -11 -74 -30 -98 -30
-13 0 -99 56 -201 130 -98 72 -187 130 -196 130 -18 0 -195 -64 -205 -74 -3
-2 3 -26 13 -52 l18 -46 59 5 60 5 120 -85 c67 -47 136 -92 155 -100 l35 -14
-41 -42 c-59 -60 -82 -117 -82 -203 0 -127 75 -237 184 -269 66 -20 118 -19
207 4 76 19 448 156 462 170 4 4 -2 29 -13 55 l-20 48 -54 -6 -53 -7 -63 168
c-35 92 -93 248 -131 345 l-67 178 45 31 c25 17 49 26 52 21 3 -5 21 -32 39
-60 l34 -51 39 26 c45 30 47 39 18 95 -11 22 -17 44 -12 48 4 4 66 46 137 93
l130 86 78 -117 c43 -64 78 -120 78 -123 0 -3 -63 -48 -140 -99 -77 -51 -140
-95 -140 -97 0 -6 73 -113 77 -113 2 0 64 41 138 90 74 50 138 90 143 90 15 0
165 -232 154 -239 -5 -3 -66 -44 -136 -90 l-127 -84 -39 38 c-42 41 -63 42
-108 7 l-22 -17 66 -100 c37 -55 70 -104 74 -108 6 -6 579 361 614 394 5 5 -2
25 -18 49 -29 44 -46 48 -101 26 l-34 -14 -205 310 -205 310 29 24 c42 36 45
57 14 103 -15 23 -29 41 -33 40 -3 0 -148 -95 -321 -210z m-290 -951 c32 -84
55 -156 51 -160 -17 -19 -161 -61 -208 -62 -88 -1 -144 56 -151 153 -5 69 14
109 70 151 31 23 169 82 176 75 2 -2 30 -72 62 -157z"/>
<path d="M2861 2166 c-310 -118 -449 -505 -277 -770 128 -196 391 -295 598
-225 221 74 380 311 365 544 -9 148 -80 273 -205 365 -105 78 -176 102 -307
107 -98 3 -117 0 -174 -21z m323 -171 c76 -38 132 -94 163 -162 22 -48 25 -65
21 -137 -3 -66 -10 -93 -37 -147 -67 -137 -177 -226 -291 -236 -76 -7 -135 9
-210 58 -111 71 -162 180 -142 298 23 137 124 279 237 333 81 39 172 37 259
-7z"/>
<path d="M3941 1733 c-17 -61 -14 -71 29 -93 22 -11 40 -26 40 -33 0 -33 -71
-243 -87 -257 -10 -9 -102 -94 -205 -188 l-186 -172 -56 0 c-52 0 -57 -2 -67
-27 -30 -80 -40 -72 157 -131 97 -29 178 -51 180 -50 1 2 9 25 16 52 13 48 13
48 -17 72 l-30 23 135 138 c74 76 138 139 143 141 4 2 7 -12 7 -32 0 -29 48
-276 66 -338 4 -13 -3 -17 -33 -20 -39 -3 -53 -19 -68 -78 -6 -26 -4 -26 171
-79 192 -58 188 -58 200 6 9 45 1 59 -43 81 l-38 20 -68 273 -68 274 37 124
38 123 43 -5 c24 -2 49 0 57 7 18 15 41 86 30 96 -9 8 -346 110 -363 110 -6 0
-15 -17 -20 -37z"/>
<path d="M5840 1637 c-14 -7 -33 -29 -43 -50 -35 -71 13 -142 96 -142 31 0 45
7 68 33 48 53 38 127 -21 157 -35 18 -67 19 -100 2z"/>
</g>
</svg>
